<svg xmlns="http://www.w3.org/2000/svg" xmlns:xlink="http://www.w3.org/1999/xlink" width="600" zoomAndPan="magnify" viewBox="0 0 300 299.999988" height="400" preserveAspectRatio="xMidYMid meet" version="1.0"><defs><clipPath id="dc680ce25e"><path d="M 5 126.367188 L 300 126.367188 L 300 185.617188 L 5 185.617188 Z M 5 126.367188 " clip-rule="nonzero"/></clipPath></defs><g clip-path="url(#dc680ce25e)"><path fill="#004aad" d="M 187.347656 128.273438 L 188.863281 128.300781 C 210.367188 128.878906 228.675781 130.140625 243.78125 132.089844 C 250.472656 132.917969 257.050781 133.976562 263.519531 135.265625 C 270.050781 136.53125 276.492188 138.292969 282.847656 140.542969 C 286.1875 141.765625 289.253906 143.171875 292.046875 144.765625 L 296.152344 147.527344 L 298.84375 151.386719 L 297.449219 155.519531 L 293.550781 158.457031 L 288.886719 160.6875 C 285.617188 161.96875 282.785156 162.933594 280.386719 163.578125 L 283.46875 158.140625 L 280.601562 151.996094 L 275.726562 147.992188 L 270.304688 145.082031 L 264.726562 142.777344 C 261.21875 141.484375 257.5 140.304688 253.574219 139.234375 L 244.539062 137 L 229.109375 134.0625 C 224.136719 133.082031 215.75 131.738281 203.949219 130.03125 C 196.203125 129.113281 190.671875 128.527344 187.347656 128.273438 M 264.574219 169.148438 L 263.203125 169.628906 C 262.945312 169.703125 260.546875 170.140625 256 170.941406 L 251.410156 171.691406 L 246.644531 172.417969 L 246.539062 172.410156 L 251.484375 171.597656 L 256.199219 170.773438 L 261.46875 169.777344 L 264.574219 169.148438 M 143.96875 129.753906 L 149.070312 129.78125 C 165.964844 129.984375 182.84375 131.023438 199.699219 132.902344 C 201.328125 133.011719 206.4375 133.71875 215.027344 135.023438 C 221.910156 136.113281 228.21875 137.199219 233.953125 138.28125 L 237.882812 138.910156 L 237.730469 138.785156 C 241.214844 139.496094 244.523438 140.234375 247.660156 141.007812 C 255.804688 143.144531 260.527344 144.511719 261.828125 145.101562 C 265.246094 146.289062 268.28125 147.554688 270.933594 148.902344 L 275.222656 151.457031 C 278.101562 153.335938 279.800781 155.609375 280.316406 158.277344 L 278.523438 161.359375 C 275.722656 163.835938 273.683594 165.273438 272.414062 165.675781 C 261.253906 168.335938 248.613281 170.546875 234.492188 172.304688 C 185.960938 177.46875 140.695312 180.1875 98.695312 180.464844 C 79.722656 180.339844 64.589844 179.746094 53.300781 178.6875 L 48.640625 178.175781 C 57.230469 179.242188 70.847656 179.84375 89.496094 179.972656 C 68.925781 179.386719 55.53125 178.644531 49.316406 177.75 C 37.871094 176.300781 29.816406 174.757812 25.144531 173.121094 C 8.378906 167.324219 3.816406 160.261719 11.460938 151.933594 C 19 145.640625 34.597656 140.511719 58.246094 136.550781 C 83.238281 132.269531 111.808594 130.003906 143.96875 129.753906 M 260.375 170.5625 L 256.632812 171.675781 C 246.976562 174.195312 237.175781 176.117188 227.222656 177.445312 C 226.085938 177.652344 220.300781 178.382812 209.867188 179.632812 C 204.4375 180.195312 198.972656 180.664062 193.476562 181.042969 C 166.707031 182.90625 138.15625 183.261719 107.824219 182.113281 C 134.824219 181.925781 161.695312 180.789062 188.433594 178.710938 C 205.136719 177.457031 221.789062 175.933594 238.386719 174.140625 C 244.847656 173.289062 252.175781 172.097656 260.375 170.5625 M 143.75 126.359375 L 138.683594 126.378906 C 127.011719 126.570312 118.628906 126.847656 113.535156 127.210938 L 75.847656 129.472656 L 56.601562 130.867188 C 41.230469 132.140625 29.871094 133.675781 22.523438 135.484375 L 19.566406 136.566406 C 20.53125 136.070312 25.824219 135.203125 35.445312 133.96875 C 44.03125 132.949219 56.578125 131.953125 73.09375 130.980469 C 63.019531 132.316406 52.921875 134.097656 42.800781 136.332031 C 41.046875 136.605469 36 138.015625 27.660156 140.5625 L 27.949219 140.761719 L 31.105469 139.804688 C 27.832031 140.769531 24.585938 141.929688 21.367188 143.289062 C 8.960938 148.183594 3.773438 154.476562 5.796875 162.167969 C 9.136719 170.636719 21.230469 176.300781 42.085938 179.167969 C 44 179.53125 49.074219 180.09375 57.304688 180.851562 C 60.917969 181.242188 70.894531 181.621094 87.230469 181.988281 C 96.898438 183.066406 106.46875 183.84375 115.945312 184.324219 C 130.351562 185.078125 143.789062 185.40625 156.257812 185.304688 C 173.140625 185.296875 191.308594 184.402344 210.757812 182.617188 C 228.261719 180.691406 241.953125 178.53125 251.835938 176.128906 C 255.765625 175.214844 259.6875 174.117188 263.597656 172.835938 L 269.214844 170.742188 L 277.210938 166.699219 C 276.078125 167.109375 276.152344 166.929688 277.429688 166.152344 C 282.996094 164.9375 288.992188 162.648438 295.410156 159.28125 L 299.484375 155.601562 L 300.015625 149.734375 L 296.234375 145.53125 C 294.835938 144.066406 290.21875 141.765625 282.378906 138.636719 C 272.78125 135.464844 262.933594 133.164062 252.828125 131.738281 C 236.15625 129.34375 219.261719 127.804688 202.140625 127.121094 C 201.910156 127.003906 195.171875 126.832031 181.933594 126.609375 L 143.75 126.359375 " fill-opacity="1" fill-rule="nonzero"/></g></svg>